<svg width="26" height="27" viewBox="0 0 26 27" fill="none" xmlns="http://www.w3.org/2000/svg">
<path d="M18.4053 22.8875C17.7242 23.0015 17.0348 23.0593 16.3442 23.0604C14.2368 23.0831 12.1637 22.5261 10.3513 21.4504C10.5093 21.4504 10.6673 21.4834 10.8333 21.4834C17.3933 21.4834 22.8562 17.3014 24.0052 11.8024C25.1288 12.8993 25.7755 14.3944 25.8053 15.9644C25.7808 17.4316 25.2103 18.8371 24.2053 19.9064H24.2242V26.2144L18.4053 22.8875ZM2.15125 14.2644C1.14003 12.9403 0.586533 11.3234 0.574219 9.65735C0.574219 4.86635 5.16332 0.984375 10.8253 0.984375C16.4873 0.984375 21.0753 4.86635 21.0753 9.65735C21.0753 14.4483 16.4863 18.3314 10.8253 18.3314C9.31197 18.3337 7.81245 18.0434 6.4093 17.4764L2.15125 19.9064V14.2644Z" fill="#53575A"/>
</svg>
