<svg width="31" height="30" viewBox="0 0 31 30" fill="none" xmlns="http://www.w3.org/2000/svg">
<path d="M30.4651 3.43665C30.323 3.84971 30.0714 4.21646 29.7372 4.49768C29.3592 4.85868 28.9991 5.23772 28.6561 5.58472L25.0331 1.95471C25.5141 1.43271 26.0281 0.854711 26.5691 0.303711C26.7259 0.192821 26.9004 0.109235 27.0851 0.0566406H27.6681C28.098 0.230243 28.4786 0.507093 28.7761 0.862671C29.0621 1.16267 29.3582 1.46273 29.6592 1.74573C30.0137 2.04424 30.2902 2.42441 30.4651 2.85364V3.43665Z" fill="#53575A"/>
<path d="M19.5001 4.94568C19.3979 4.999 19.3014 5.06261 19.2121 5.13562C16.6888 7.65362 14.1668 10.1726 11.6461 12.6926C11.256 13.0729 10.9642 13.5424 10.7961 14.0607C10.4181 15.2317 10.0121 16.3947 9.63413 17.5657C9.49576 17.9665 9.45695 18.395 9.52122 18.8142C9.58548 19.2334 9.75092 19.6307 10.003 19.9717C10.2551 20.3127 10.5864 20.5872 10.9684 20.7715C11.3503 20.9558 11.7712 21.0444 12.195 21.0297C12.4674 21.0159 12.7367 20.9648 12.9951 20.8777C14.1951 20.4907 15.3891 20.0867 16.5851 19.6897C17.0374 19.5369 17.4468 19.2784 17.7792 18.9357C20.3172 16.393 22.8578 13.8516 25.4011 11.3116C25.4791 11.2326 25.5631 11.1587 25.6911 11.0377V11.3796C25.6911 16.4296 25.6911 21.4803 25.6911 26.5316C25.7137 26.9798 25.6419 27.4278 25.4806 27.8466C25.3193 28.2653 25.072 28.6456 24.7546 28.9629C24.4372 29.2802 24.0569 29.5274 23.638 29.6886C23.2192 29.8498 22.7713 29.9213 22.3231 29.8987H3.99607C3.54785 29.9206 3.09998 29.8484 2.68137 29.6866C2.26277 29.5249 1.88281 29.2773 1.56577 28.9597C1.24874 28.6421 1.00177 28.2617 0.840798 27.8428C0.679821 27.4239 0.608329 26.9759 0.631081 26.5277C0.631081 20.4184 0.631081 14.3093 0.631081 8.20068C0.609233 7.75493 0.680595 7.30953 0.840676 6.89294C1.00076 6.47635 1.24605 6.09779 1.56077 5.78137C1.87549 5.46495 2.25283 5.21761 2.66856 5.0553C3.08428 4.89298 3.52921 4.81917 3.97508 4.83862H19.4171L19.5001 4.94568Z" fill="#53575A"/>
<path d="M23.6261 3.20068L27.3261 6.90063C27.2741 6.95563 27.2041 7.03171 27.1311 7.10071C23.6171 10.616 20.1008 14.129 16.5821 17.6396C16.3888 17.8266 16.1576 17.9698 15.9041 18.0597C14.7791 18.4537 13.6431 18.8147 12.5151 19.1997C12.3491 19.2776 12.1632 19.3027 11.9825 19.2715C11.8018 19.2403 11.6351 19.1543 11.5048 19.0253C11.3746 18.8962 11.2871 18.7303 11.2542 18.5499C11.2214 18.3695 11.2447 18.1834 11.3211 18.0167C11.7151 16.8607 12.0901 15.6987 12.4871 14.5437C12.5513 14.3518 12.6568 14.1764 12.7961 14.0297C16.3674 10.4477 19.9424 6.86996 23.5211 3.29663C23.5521 3.26663 23.5891 3.23668 23.6261 3.20068Z" fill="#53575A"/>
</svg>
