<svg width="26" height="27" viewBox="0 0 26 27" fill="none" xmlns="http://www.w3.org/2000/svg">
<path d="M9.81618 23.0596H16.1242C16.1242 23.8961 15.7918 24.6983 15.2003 25.2898C14.6088 25.8813 13.8066 26.2135 12.9701 26.2135C12.1336 26.2135 11.3314 25.8813 10.7399 25.2898C10.1484 24.6983 9.81618 23.8961 9.81618 23.0596ZM1.93117 21.4826C1.73566 21.4943 1.53974 21.4675 1.35463 21.4035C1.16953 21.3394 0.998904 21.2395 0.852435 21.1095C0.705965 20.9795 0.586487 20.8219 0.500994 20.6456C0.415501 20.4694 0.36562 20.2781 0.354144 20.0825C0.351094 20.0229 0.351094 19.9632 0.354144 19.9036C0.330907 19.5089 0.465297 19.121 0.727801 18.8253C0.990305 18.5296 1.35948 18.3503 1.75417 18.3266C1.81317 18.3266 1.87315 18.3266 1.93215 18.3266H2.72109C3.40863 17.7336 3.97174 17.0101 4.3777 16.198C4.78367 15.3859 5.02452 14.5014 5.0862 13.5956V8.86452C5.06621 6.79349 5.86966 4.79938 7.31984 3.3207C8.77003 1.84201 10.7481 0.999833 12.8191 0.97951H12.9711C15.0418 0.958986 17.0358 1.76192 18.5145 3.21157C19.9933 4.66122 20.8355 6.63894 20.8561 8.70961C20.8561 8.76161 20.8561 8.80952 20.8561 8.86452V13.5956C20.9179 14.5015 21.1589 15.386 21.5651 16.1981C21.9712 17.0102 22.5345 17.7337 23.2222 18.3266H24.0101C24.2057 18.3148 24.4016 18.3416 24.5867 18.4057C24.7718 18.4697 24.9424 18.5696 25.0889 18.6996C25.2354 18.8296 25.3547 18.9873 25.4402 19.1635C25.5257 19.3397 25.5757 19.5311 25.5872 19.7266C25.5911 19.7862 25.5911 19.8459 25.5872 19.9055C25.5991 20.1011 25.5723 20.297 25.5083 20.4822C25.4444 20.6674 25.3444 20.8381 25.2144 20.9846C25.0843 21.1311 24.9267 21.2505 24.7504 21.336C24.5741 21.4214 24.3827 21.4712 24.1872 21.4826C24.1276 21.4866 24.0678 21.4866 24.0082 21.4826H1.93117Z" fill="#53575A"/>
</svg>
