<svg width="53" height="52" viewBox="0 0 53 52" fill="none" xmlns="http://www.w3.org/2000/svg">
<path d="M31.181 46.9354C42.7455 44.2053 49.9072 32.6172 47.1771 21.0527C44.447 9.48819 32.8589 2.32649 21.2944 5.0566C9.72987 7.78671 2.56817 19.3748 5.29829 30.9393C8.0284 42.5038 19.6165 49.6655 31.181 46.9354Z" fill="#E3E7E7"/>
<mask id="mask0_1_116" style="mask-type:luminance" maskUnits="userSpaceOnUse" x="4" y="4" width="44" height="44">
<path d="M31.181 46.9355C42.7455 44.2053 49.9072 32.6173 47.1771 21.0527C44.447 9.48822 32.8589 2.32652 21.2944 5.05663C9.72987 7.78674 2.56817 19.3748 5.29829 30.9393C8.0284 42.5039 19.6165 49.6656 31.181 46.9355Z" fill="white"/>
</mask>
<g mask="url(#mask0_1_116)">
<path d="M26.0311 13.6829C26.0311 13.6829 18.7721 13.4549 16.9931 21.6829C16.4141 24.3639 18.732 26.2479 17.356 28.2769C15.98 30.3059 11.778 32.553 13.08 35.377C14.382 38.201 9.39101 40.8909 11.632 44.7239C13.873 48.5569 38.285 47.664 40.242 45.2C42.199 42.736 41.532 38.0559 39.742 36.0999C38.042 34.2449 39.0931 31.026 39.4481 29.576C40.1771 26.608 37.9301 24.8689 36.5551 23.4219C35.1801 21.9749 34.7801 13.7919 26.0311 13.6829Z" fill="#1D1D1B"/>
<path d="M17.228 34.9739C17.8233 34.6404 18.4539 34.3741 19.108 34.18L22.369 33.199L22.624 33.121L22.724 33.09L22.813 33.065L25.89 32.1409L28.979 32.7899V33.059C28.972 33.059 28.9719 33.065 28.9659 33.065L29.13 33.117H29.156L29.603 33.252L32.667 34.1759C33.3565 34.3815 34.0191 34.6682 34.641 35.0299C36.0936 35.8577 37.3014 37.0551 38.1416 38.5005C38.9818 39.946 39.4247 41.588 39.425 43.2599V47.1359C39.4249 47.2377 39.4047 47.3384 39.3656 47.4324C39.3265 47.5264 39.2693 47.6118 39.1973 47.6836C39.1252 47.7555 39.0398 47.8125 38.9457 47.8513C38.8516 47.8902 38.7508 47.9101 38.649 47.9099H13.129C13.0273 47.9101 12.9265 47.8902 12.8324 47.8513C12.7383 47.8125 12.6527 47.7555 12.5807 47.6836C12.5086 47.6118 12.4514 47.5264 12.4124 47.4324C12.3733 47.3384 12.3532 47.2377 12.353 47.1359V43.2599C12.3539 41.5698 12.8063 39.9105 13.6633 38.4538C14.5204 36.997 15.7511 35.7957 17.228 34.9739Z" fill="url(#paint0_linear_1_116)"/>
<path d="M18.3731 24.576C18.4641 23.796 19.223 23.9319 19.429 23.9829C19.407 23.7409 19.396 23.4999 19.396 23.2539C19.396 19.1399 22.305 15.804 25.896 15.804C29.487 15.804 32.39 19.1399 32.39 23.2539C32.39 23.4999 32.38 23.7449 32.359 23.9849C32.52 23.9419 33.34 23.763 33.434 24.576C33.542 25.476 32.1081 27.305 31.5241 26.976C30.9547 28.1359 30.0778 29.1171 28.989 29.8129V33.0629C28.982 33.0629 28.982 33.069 28.976 33.069C28.0816 33.7184 27.0048 34.0681 25.8996 34.0681C24.7943 34.0681 23.7174 33.7184 22.823 33.069C22.816 33.069 22.8161 33.0629 22.8101 33.0629V29.8129C21.7225 29.1198 20.847 28.1403 20.2801 26.982C19.6831 27.282 18.2671 25.475 18.3731 24.576Z" fill="white"/>
<path d="M24.152 18.046C24.152 18.046 26.495 21.934 29.468 22.905C29.8329 22.6264 30.28 22.4769 30.7391 22.4802C31.1982 22.4835 31.6431 22.6393 32.004 22.9231C32.747 23.5521 31.964 25.907 31.964 25.907C31.964 25.907 35.313 20.624 33.464 18.046C31.09 14.726 28.409 13.646 26.027 13.683C24.7736 13.6998 23.5417 14.0104 22.4302 14.5898C21.3186 15.1692 20.3585 16.0012 19.6269 17.019C18.2549 19.475 19.3879 24.529 19.3879 24.529C19.5997 23.4068 19.9007 22.3033 20.2879 21.229C20.7519 20.203 24.152 18.046 24.152 18.046Z" fill="#1D1D1B"/>
</g>
<defs>
<linearGradient id="paint0_linear_1_116" x1="12.353" y1="40.0254" x2="39.425" y2="40.0254" gradientUnits="userSpaceOnUse">
<stop stop-color="#009DB3"/>
<stop offset="1" stop-color="#00CFEB"/>
</linearGradient>
</defs>
</svg>
