<svg width="38" height="26" viewBox="0 0 38 26" fill="none" xmlns="http://www.w3.org/2000/svg">
<path d="M19.8547 0.747628C23.307 0.821681 26.6881 1.74368 29.7001 3.43244C32.7122 5.1212 35.2626 7.52484 37.1267 10.4316C37.9747 11.6756 37.8607 12.8166 36.8687 13.4846C35.8287 14.1846 34.7837 13.8517 33.8787 12.5327C32.4583 10.3087 30.5381 8.44704 28.2713 7.09602C26.0045 5.745 23.4537 4.94184 20.8217 4.75056C14.0707 4.19056 8.71176 6.79156 4.72676 12.2506C4.55676 12.4846 4.41277 12.7386 4.23677 12.9686C4.09693 13.183 3.91565 13.3675 3.70369 13.5111C3.49172 13.6546 3.25329 13.7544 3.00227 13.8046C2.75125 13.8549 2.49267 13.8546 2.24177 13.8038C1.99087 13.7529 1.75272 13.6525 1.54109 13.5085C1.32946 13.3644 1.14868 13.1796 1.00935 12.9648C0.870022 12.75 0.774852 12.5096 0.729566 12.2576C0.684279 12.0057 0.689734 11.7472 0.745557 11.4974C0.80138 11.2475 0.90654 11.0113 1.05476 10.8026C2.72794 8.10947 4.98567 5.82743 7.66072 4.12556C11.3135 1.84471 15.549 0.671452 19.8547 0.747628Z" fill="#61BD63"/>
<path d="M30.2548 16.3367C30.2848 16.7584 30.1808 17.1789 29.9578 17.538C29.7348 17.8971 29.404 18.1766 29.0128 18.3367C28.6585 18.5 28.2601 18.5411 27.8799 18.4533C27.4998 18.3655 27.1596 18.1539 26.9128 17.8517C26.4358 17.3327 26.0558 16.7227 25.5748 16.2077C24.6975 15.2727 23.6253 14.5423 22.4341 14.0681C21.243 13.594 19.9621 13.3878 18.6823 13.4641C17.4025 13.5405 16.1552 13.8975 15.0289 14.5099C13.9025 15.1223 12.9247 15.9751 12.1648 17.0077C12.0508 17.1627 11.9438 17.3237 11.8278 17.4777C11.694 17.7183 11.5108 17.9279 11.2902 18.0926C11.0696 18.2573 10.8166 18.3734 10.5479 18.4333C10.2792 18.4932 10.0008 18.4955 9.73113 18.4401C9.46146 18.3847 9.20666 18.2728 8.98333 18.1118C8.76 17.9509 8.57328 17.7443 8.43548 17.506C8.29768 17.2677 8.21187 17.0029 8.18377 16.729C8.15567 16.4552 8.18586 16.1785 8.27239 15.9171C8.35892 15.6558 8.49987 15.4157 8.68585 15.2127C10.4527 12.5153 13.1966 10.6083 16.3408 9.89273C18.8485 9.30398 21.4765 9.49797 23.8707 10.4486C26.2648 11.3993 28.31 13.061 29.7308 15.2097C29.9356 15.5706 30.1109 15.9475 30.2548 16.3367Z" fill="#61BD63"/>
<path d="M19.2917 19.0676C19.7095 19.0755 20.1214 19.1668 20.5034 19.3363C20.8853 19.5057 21.2295 19.7498 21.5157 20.0541C21.8019 20.3585 22.0244 20.7171 22.17 21.1087C22.3156 21.5003 22.3815 21.9172 22.3637 22.3347C22.342 23.1714 21.9887 23.9653 21.3817 24.5416C20.7746 25.1179 19.9634 25.4294 19.1267 25.4077C18.2899 25.3859 17.4961 25.0327 16.9198 24.4256C16.3435 23.8186 16.0319 23.0074 16.0537 22.1706C16.0569 21.7526 16.1439 21.3394 16.3094 20.9555C16.475 20.5716 16.7158 20.2249 17.0177 19.9356C17.3195 19.6464 17.6763 19.4205 18.0669 19.2714C18.4574 19.1224 18.8739 19.053 19.2917 19.0676Z" fill="#61BD63"/>
</svg>
